# xmcd CD database file
#
# Track frame offsets:
#	150
#	8857
#	34268
#	46946
#	77131
#	83979
#	112562
#	132291
#	145906
#	150373
#	178425
#	204341
#	217414
#	236291
#	238715
#	250440
#	256896
#	260100
#	274749
#	301837
#
# Disc length: 4533 seconds
#
# Revision: 0
# Processed by: cddbd v1.5.1PL0 Copyright (c) Steve Scherf et al.
# Submitted via: CDex 1.51
#
DISCID=1711b314
DTITLE=Mr.Jason - Man with a Cut-Out Shadow
DYEAR=2005
DGENRE=New Age
TTITLE0=Mr.Jason - Quidabodadoo
TTITLE1=Mr.Jason - 35000 miles
TTITLE2=Mr.Jason - Wedding
TTITLE3=Mr.Jason - Cut-Out
TTITLE4=Mr.Jason - Catching Dream
TTITLE5=Mr.Jason - Gravity Fields
TTITLE6=Mr.Jason - High Land
TTITLE7=Mr.Jason - Iceberg
TTITLE8=Mr.Jason - Loneliness
TTITLE9=Mr.Jason - Neo-Ichi 2060
TTITLE10=Mr.Jason - On Tracks
TTITLE11=Mr.Jason - Swamp
TTITLE12=Mr.Jason - Source
TTITLE13=Mr.Jason - Second Awakening
TTITLE14=Mr.Jason - Skyfall
TTITLE15=Mr.Jason - Hotaru
TTITLE16=Mr.Jason - Wind of Autumn
TTITLE17=Mr.Jason - Memoir
TTITLE18=Mr.Jason - Lonely Escape (over northern wall)
TTITLE19=Mr.Jason - New Life
EXTD=YEAR: 2005
EXTT0=
EXTT1=
EXTT2=
EXTT3=
EXTT4=
EXTT5=
EXTT6=
EXTT7=
EXTT8=
EXTT9=
EXTT10=
EXTT11=
EXTT12=
EXTT13=
EXTT14=
EXTT15=
EXTT16=
EXTT17=
EXTT18=
EXTT19=
PLAYORDER=
